<?xml version="1.0" encoding="UTF-8"?>
<svg xmlns="http://www.w3.org/2000/svg" xmlns:xlink="http://www.w3.org/1999/xlink" width="512pt" height="512pt" viewBox="0 0 512 512" version="1.1">
<g id="surface1">
<rect x="0" y="0" width="512" height="512" style="fill:rgb(93.333333%,93.333333%,93.333333%);fill-opacity:1;stroke:none;"/>
<path style=" stroke:none;fill-rule:nonzero;fill:rgb(0%,0%,0%);fill-opacity:1;" d="M 78.863281 96 L 74.542969 96 L 74.542969 80.015625 L 56.976562 80.015625 L 56.976562 96 L 52.65625 96 L 52.65625 61.726562 L 56.976562 61.726562 L 56.976562 76.222656 L 74.542969 76.222656 L 74.542969 61.726562 L 78.863281 61.726562 Z M 98.015625 69.792969 C 100.222656 69.792969 102.121094 70.273438 103.703125 71.230469 C 105.289062 72.191406 106.503906 73.542969 107.351562 75.289062 C 108.199219 77.03125 108.625 79.070312 108.625 81.40625 L 108.625 83.953125 L 91.007812 83.953125 C 91.070312 86.863281 91.816406 89.078125 93.238281 90.601562 C 94.664062 92.121094 96.65625 92.878906 99.214844 92.878906 C 100.847656 92.878906 102.296875 92.726562 103.558594 92.425781 C 104.824219 92.121094 106.128906 91.679688 107.472656 91.105469 L 107.472656 94.800781 C 106.160156 95.375 104.863281 95.800781 103.585938 96.070312 C 102.304688 96.34375 100.785156 96.480469 99.023438 96.480469 C 96.59375 96.480469 94.441406 95.984375 92.566406 94.992188 C 90.695312 94 89.238281 92.519531 88.199219 90.550781 C 87.160156 88.582031 86.640625 86.175781 86.640625 83.328125 C 86.640625 80.511719 87.113281 78.097656 88.054688 76.078125 C 89 74.0625 90.328125 72.511719 92.039062 71.425781 C 93.75 70.335938 95.742188 69.792969 98.015625 69.792969 Z M 97.96875 73.246094 C 95.953125 73.246094 94.359375 73.894531 93.191406 75.191406 C 92.023438 76.488281 91.328125 78.289062 91.105469 80.59375 L 104.207031 80.59375 C 104.207031 79.121094 103.984375 77.839844 103.535156 76.753906 C 103.085938 75.664062 102.40625 74.808594 101.496094 74.183594 C 100.585938 73.558594 99.40625 73.246094 97.96875 73.246094 Z M 119.304688 96 L 115.078125 96 L 115.078125 59.519531 L 119.304688 59.519531 Z M 131.304688 96 L 127.078125 96 L 127.078125 59.519531 L 131.304688 59.519531 Z M 161.449219 83.089844 C 161.449219 85.234375 161.167969 87.128906 160.609375 88.777344 C 160.046875 90.425781 159.246094 91.824219 158.207031 92.976562 C 157.167969 94.128906 155.902344 95 154.414062 95.59375 C 152.925781 96.183594 151.273438 96.480469 149.449219 96.480469 C 147.753906 96.480469 146.183594 96.183594 144.742188 95.59375 C 143.304688 95 142.054688 94.128906 141 92.976562 C 139.945312 91.824219 139.121094 90.425781 138.527344 88.777344 C 137.9375 87.128906 137.640625 85.230469 137.640625 83.089844 C 137.640625 80.242188 138.121094 77.832031 139.078125 75.863281 C 140.039062 73.894531 141.414062 72.390625 143.207031 71.351562 C 145 70.3125 147.128906 69.792969 149.59375 69.792969 C 151.929688 69.792969 153.984375 70.3125 155.761719 71.351562 C 157.535156 72.390625 158.929688 73.894531 159.9375 75.863281 C 160.945312 77.832031 161.449219 80.238281 161.449219 83.089844 Z M 142.007812 83.089844 C 142.007812 85.105469 142.273438 86.855469 142.800781 88.34375 C 143.328125 89.832031 144.152344 90.976562 145.273438 91.777344 C 146.390625 92.578125 147.816406 92.976562 149.542969 92.976562 C 151.273438 92.976562 152.695312 92.574219 153.816406 91.777344 C 154.9375 90.976562 155.761719 89.832031 156.289062 88.34375 C 156.816406 86.855469 157.078125 85.105469 157.078125 83.089844 C 157.078125 81.039062 156.808594 79.296875 156.265625 77.855469 C 155.71875 76.414062 154.894531 75.304688 153.792969 74.519531 C 152.6875 73.734375 151.257812 73.34375 149.496094 73.34375 C 146.871094 73.34375 144.96875 74.207031 143.785156 75.9375 C 142.601562 77.664062 142.007812 80.046875 142.007812 83.089844 Z M 172.878906 90.433594 L 173.214844 90.960938 C 172.800781 92.65625 172.199219 94.519531 171.414062 96.550781 C 170.632812 98.582031 169.855469 100.464844 169.089844 102.191406 L 165.96875 102.191406 C 166.417969 100.367188 166.871094 98.367188 167.335938 96.191406 C 167.800781 94.015625 168.144531 92.097656 168.367188 90.433594 Z M 208.6875 81.457031 C 208.433594 80.558594 208.183594 79.6875 207.945312 78.839844 C 207.703125 77.992188 207.496094 77.199219 207.320312 76.464844 C 207.144531 75.726562 207.007812 75.121094 206.910156 74.640625 L 206.71875 74.640625 C 206.65625 75.121094 206.535156 75.726562 206.359375 76.464844 C 206.183594 77.199219 205.984375 78 205.761719 78.863281 C 205.535156 79.726562 205.28125 80.609375 204.992188 81.503906 L 200.382812 95.953125 L 195.585938 95.953125 L 188.527344 70.222656 L 192.894531 70.222656 L 196.449219 83.953125 C 196.703125 84.878906 196.945312 85.816406 197.167969 86.761719 C 197.390625 87.703125 197.59375 88.601562 197.769531 89.449219 C 197.945312 90.296875 198.0625 91.023438 198.128906 91.632812 L 198.320312 91.632812 C 198.417969 91.25 198.527344 90.769531 198.65625 90.191406 C 198.785156 89.617188 198.921875 89.007812 199.0625 88.367188 C 199.207031 87.726562 199.367188 87.089844 199.542969 86.449219 C 199.71875 85.808594 199.886719 85.230469 200.046875 84.71875 L 204.609375 70.222656 L 209.214844 70.222656 L 213.632812 84.71875 C 213.855469 85.457031 214.089844 86.238281 214.328125 87.070312 C 214.566406 87.902344 214.785156 88.710938 214.976562 89.496094 C 215.167969 90.28125 215.296875 90.976562 215.359375 91.585938 L 215.550781 91.585938 C 215.617188 91.039062 215.734375 90.359375 215.910156 89.542969 C 216.085938 88.726562 216.296875 87.832031 216.535156 86.855469 C 216.777344 85.878906 217.023438 84.910156 217.28125 83.953125 L 220.878906 70.222656 L 225.199219 70.222656 L 218.046875 95.953125 L 213.105469 95.953125 Z M 252.449219 83.089844 C 252.449219 85.234375 252.167969 87.128906 251.609375 88.777344 C 251.046875 90.425781 250.246094 91.824219 249.207031 92.976562 C 248.167969 94.128906 246.902344 95 245.414062 95.59375 C 243.925781 96.183594 242.273438 96.480469 240.449219 96.480469 C 238.753906 96.480469 237.183594 96.183594 235.742188 95.59375 C 234.304688 95 233.054688 94.128906 232 92.976562 C 230.945312 91.824219 230.121094 90.425781 229.527344 88.777344 C 228.9375 87.128906 228.640625 85.230469 228.640625 83.089844 C 228.640625 80.242188 229.121094 77.832031 230.078125 75.863281 C 231.039062 73.894531 232.414062 72.390625 234.207031 71.351562 C 236 70.3125 238.128906 69.792969 240.59375 69.792969 C 242.929688 69.792969 244.984375 70.3125 246.761719 71.351562 C 248.535156 72.390625 249.929688 73.894531 250.9375 75.863281 C 251.945312 77.832031 252.449219 80.238281 252.449219 83.089844 Z M 233.007812 83.089844 C 233.007812 85.105469 233.273438 86.855469 233.800781 88.34375 C 234.328125 89.832031 235.152344 90.976562 236.273438 91.777344 C 237.390625 92.578125 238.816406 92.976562 240.542969 92.976562 C 242.273438 92.976562 243.695312 92.574219 244.816406 91.777344 C 245.9375 90.976562 246.761719 89.832031 247.289062 88.34375 C 247.816406 86.855469 248.078125 85.105469 248.078125 83.089844 C 248.078125 81.039062 247.808594 79.296875 247.265625 77.855469 C 246.71875 76.414062 245.894531 75.304688 244.792969 74.519531 C 243.6875 73.734375 242.257812 73.34375 240.496094 73.34375 C 237.871094 73.34375 235.96875 74.207031 234.785156 75.9375 C 233.601562 77.664062 233.007812 80.046875 233.007812 83.089844 Z M 271.078125 69.792969 C 271.558594 69.792969 272.078125 69.816406 272.640625 69.863281 C 273.199219 69.910156 273.6875 69.984375 274.105469 70.078125 L 273.574219 73.96875 C 273.160156 73.871094 272.703125 73.792969 272.207031 73.726562 C 271.710938 73.664062 271.238281 73.632812 270.792969 73.632812 C 269.800781 73.632812 268.855469 73.839844 267.960938 74.257812 C 267.0625 74.671875 266.265625 75.257812 265.558594 76.007812 C 264.855469 76.761719 264.304688 77.664062 263.902344 78.71875 C 263.503906 79.777344 263.304688 80.960938 263.304688 82.273438 L 263.304688 96 L 259.078125 96 L 259.078125 70.273438 L 262.535156 70.273438 L 263.015625 74.976562 L 263.207031 74.976562 C 263.75 74.015625 264.40625 73.144531 265.175781 72.359375 C 265.945312 71.574219 266.824219 70.953125 267.816406 70.488281 C 268.808594 70.023438 269.894531 69.792969 271.078125 69.792969 Z M 287.199219 96.480469 C 284 96.480469 281.441406 95.367188 279.519531 93.144531 C 277.601562 90.921875 276.640625 87.601562 276.640625 83.183594 C 276.640625 78.769531 277.609375 75.433594 279.542969 73.175781 C 281.480469 70.921875 284.046875 69.792969 287.246094 69.792969 C 288.589844 69.792969 289.761719 69.960938 290.753906 70.296875 C 291.746094 70.632812 292.609375 71.089844 293.34375 71.664062 C 294.078125 72.238281 294.703125 72.878906 295.214844 73.585938 L 295.503906 73.585938 C 295.472656 73.167969 295.414062 72.550781 295.335938 71.734375 C 295.257812 70.917969 295.214844 70.273438 295.214844 69.792969 L 295.214844 59.519531 L 299.441406 59.519531 L 299.441406 96 L 296.03125 96 L 295.40625 92.542969 L 295.214844 92.542969 C 294.703125 93.28125 294.078125 93.945312 293.34375 94.535156 C 292.609375 95.128906 291.734375 95.601562 290.726562 95.953125 C 289.71875 96.304688 288.542969 96.480469 287.199219 96.480469 Z M 287.871094 92.976562 C 290.589844 92.976562 292.503906 92.230469 293.609375 90.742188 C 294.710938 89.253906 295.265625 87.007812 295.265625 84 L 295.265625 83.230469 C 295.265625 80.03125 294.734375 77.574219 293.679688 75.863281 C 292.625 74.152344 290.671875 73.296875 287.824219 73.296875 C 285.550781 73.296875 283.847656 74.199219 282.710938 76.007812 C 281.574219 77.816406 281.007812 80.238281 281.007812 83.28125 C 281.007812 86.351562 281.574219 88.734375 282.710938 90.433594 C 283.847656 92.128906 285.566406 92.976562 287.871094 92.976562 Z M 311.824219 86.351562 L 309.089844 86.351562 L 307.886719 61.726562 L 313.023438 61.726562 Z M 307.457031 93.40625 C 307.457031 92.222656 307.742188 91.390625 308.320312 90.910156 C 308.894531 90.429688 309.601562 90.191406 310.433594 90.191406 C 311.234375 90.191406 311.929688 90.433594 312.519531 90.910156 C 313.113281 91.390625 313.40625 92.222656 313.40625 93.40625 C 313.40625 94.558594 313.113281 95.390625 312.519531 95.902344 C 311.929688 96.414062 311.230469 96.671875 310.433594 96.671875 C 309.601562 96.671875 308.894531 96.414062 308.320312 95.902344 C 307.742188 95.390625 307.457031 94.558594 307.457031 93.40625 Z M 337.113281 75.886719 C 336.441406 75.023438 335.945312 74.382812 335.625 73.96875 C 335.304688 73.550781 335.097656 73.238281 335 73.03125 C 334.902344 72.824219 334.855469 72.625 334.855469 72.433594 C 334.855469 72.242188 334.9375 72.007812 335.097656 71.734375 C 335.257812 71.464844 335.550781 71.03125 335.984375 70.441406 C 336.417969 69.847656 337.0625 68.992188 337.929688 67.871094 L 351.273438 67.871094 L 351.273438 71.089844 L 337.929688 71.089844 L 337.929688 71.136719 L 341.046875 74.6875 Z M 368.839844 77.855469 L 368.839844 88.414062 C 368.839844 90.941406 368.023438 92.839844 366.390625 94.105469 C 364.757812 95.367188 362.296875 96 359 96 C 352.472656 96 349.207031 93.472656 349.207031 88.414062 L 349.207031 81.9375 C 349.207031 80.496094 348.742188 79.414062 347.816406 78.695312 C 346.886719 77.976562 345.496094 77.617188 343.640625 77.617188 C 341.785156 77.617188 340.398438 77.976562 339.488281 78.695312 C 338.574219 79.414062 338.121094 80.496094 338.121094 81.9375 L 338.121094 84.769531 L 333.703125 84.769531 L 333.703125 81.9375 C 333.703125 80.144531 334.070312 78.6875 334.808594 77.566406 C 335.542969 76.449219 336.648438 75.632812 338.121094 75.121094 C 339.59375 74.609375 341.433594 74.351562 343.640625 74.351562 C 345.847656 74.351562 347.695312 74.632812 349.183594 75.191406 C 350.671875 75.75 351.785156 76.59375 352.519531 77.710938 C 353.253906 78.832031 353.625 80.238281 353.625 81.9375 L 353.625 88.414062 C 353.625 89.855469 354.070312 90.945312 354.96875 91.679688 C 355.863281 92.414062 357.207031 92.785156 359 92.785156 C 360.824219 92.785156 362.183594 92.414062 363.078125 91.679688 C 363.976562 90.945312 364.425781 89.855469 364.425781 88.414062 L 364.425781 77.855469 Z M 333.703125 84.144531 L 338.121094 84.144531 L 338.121094 85.488281 C 339.113281 85.488281 339.984375 85.664062 340.734375 86.015625 C 341.488281 86.367188 342.089844 86.921875 342.535156 87.671875 C 342.984375 88.425781 343.207031 89.390625 343.207031 90.574219 C 343.207031 92.238281 342.726562 93.558594 341.769531 94.535156 C 340.808594 95.511719 339.625 96 338.214844 96 L 336.871094 96 C 336.007812 96 335.265625 95.761719 334.640625 95.28125 C 334.015625 94.800781 333.703125 94.078125 333.703125 93.121094 Z M 338.121094 92.785156 C 338.601562 92.785156 338.992188 92.695312 339.296875 92.519531 C 339.601562 92.34375 339.832031 92.097656 339.992188 91.777344 C 340.152344 91.457031 340.230469 91.070312 340.230469 90.625 C 340.230469 90.046875 340.0625 89.601562 339.726562 89.28125 C 339.390625 88.960938 338.855469 88.785156 338.121094 88.753906 Z M 364.425781 78.671875 L 364.425781 77.089844 C 363.433594 75.839844 362.695312 74.929688 362.214844 74.351562 C 361.734375 73.777344 361.433594 73.359375 361.304688 73.105469 C 361.175781 72.847656 361.113281 72.625 361.113281 72.433594 C 361.113281 72.242188 361.191406 72.007812 361.351562 71.734375 C 361.511719 71.464844 361.808594 71.03125 362.238281 70.441406 C 362.671875 69.847656 363.320312 68.992188 364.183594 67.871094 L 369.992188 67.871094 L 369.992188 71.089844 L 364.183594 71.089844 L 364.183594 71.136719 L 368.839844 76.320312 L 368.839844 78.671875 Z M 352.113281 108.710938 L 352.113281 98.632812 L 356.289062 98.632812 L 356.289062 105.929688 L 359.742188 102.855469 L 363.152344 105.878906 L 363.152344 98.632812 L 367.328125 98.632812 L 367.328125 108.710938 L 362.671875 108.710938 L 359.742188 106.167969 L 356.816406 108.710938 Z M 382.113281 75.886719 C 381.441406 75.023438 380.945312 74.382812 380.625 73.96875 C 380.304688 73.550781 380.097656 73.238281 380 73.03125 C 379.902344 72.824219 379.855469 72.625 379.855469 72.433594 C 379.855469 72.242188 379.9375 72.007812 380.097656 71.734375 C 380.257812 71.464844 380.550781 71.03125 380.984375 70.441406 C 381.417969 69.847656 382.0625 68.992188 382.929688 67.871094 L 396.273438 67.871094 L 396.273438 71.089844 L 382.929688 71.089844 L 382.929688 71.136719 L 386.046875 74.6875 Z M 413.839844 77.855469 L 413.839844 88.414062 C 413.839844 90.941406 413.023438 92.839844 411.390625 94.105469 C 409.757812 95.367188 407.296875 96 404 96 C 397.472656 96 394.207031 93.472656 394.207031 88.414062 L 394.207031 81.9375 C 394.207031 80.496094 393.742188 79.414062 392.816406 78.695312 C 391.886719 77.976562 390.496094 77.617188 388.640625 77.617188 C 386.785156 77.617188 385.398438 77.976562 384.488281 78.695312 C 383.574219 79.414062 383.121094 80.496094 383.121094 81.9375 L 383.121094 84.769531 L 378.703125 84.769531 L 378.703125 81.9375 C 378.703125 80.144531 379.070312 78.6875 379.808594 77.566406 C 380.542969 76.449219 381.648438 75.632812 383.121094 75.121094 C 384.59375 74.609375 386.433594 74.351562 388.640625 74.351562 C 390.847656 74.351562 392.695312 74.632812 394.183594 75.191406 C 395.671875 75.75 396.785156 76.59375 397.519531 77.710938 C 398.253906 78.832031 398.625 80.238281 398.625 81.9375 L 398.625 88.414062 C 398.625 89.855469 399.070312 90.945312 399.96875 91.679688 C 400.863281 92.414062 402.207031 92.785156 404 92.785156 C 405.824219 92.785156 407.183594 92.414062 408.078125 91.679688 C 408.976562 90.945312 409.425781 89.855469 409.425781 88.414062 L 409.425781 77.855469 Z M 378.703125 84.144531 L 383.121094 84.144531 L 383.121094 85.488281 C 384.113281 85.488281 384.984375 85.664062 385.734375 86.015625 C 386.488281 86.367188 387.089844 86.921875 387.535156 87.671875 C 387.984375 88.425781 388.207031 89.390625 388.207031 90.574219 C 388.207031 92.238281 387.726562 93.558594 386.769531 94.535156 C 385.808594 95.511719 384.625 96 383.214844 96 L 381.871094 96 C 381.007812 96 380.265625 95.761719 379.640625 95.28125 C 379.015625 94.800781 378.703125 94.078125 378.703125 93.121094 Z M 383.121094 92.785156 C 383.601562 92.785156 383.992188 92.695312 384.296875 92.519531 C 384.601562 92.34375 384.832031 92.097656 384.992188 91.777344 C 385.152344 91.457031 385.230469 91.070312 385.230469 90.625 C 385.230469 90.046875 385.0625 89.601562 384.726562 89.28125 C 384.390625 88.960938 383.855469 88.785156 383.121094 88.753906 Z M 409.425781 78.671875 L 409.425781 77.089844 C 408.433594 75.839844 407.695312 74.929688 407.214844 74.351562 C 406.734375 73.777344 406.433594 73.359375 406.304688 73.105469 C 406.175781 72.847656 406.113281 72.625 406.113281 72.433594 C 406.113281 72.242188 406.191406 72.007812 406.351562 71.734375 C 406.511719 71.464844 406.808594 71.03125 407.238281 70.441406 C 407.671875 69.847656 408.320312 68.992188 409.183594 67.871094 L 414.992188 67.871094 L 414.992188 71.089844 L 409.183594 71.089844 L 409.183594 71.136719 L 413.839844 76.320312 L 413.839844 78.671875 Z M 398.496094 108.710938 C 396.417969 108.710938 395.375 107.816406 395.375 106.023438 L 395.375 103.625 C 395.375 102.601562 395.679688 101.671875 396.289062 100.839844 C 396.894531 100.007812 397.886719 99.351562 399.265625 98.871094 C 400.640625 98.390625 402.480469 98.152344 404.785156 98.152344 C 407.089844 98.152344 408.929688 98.390625 410.304688 98.871094 C 411.679688 99.351562 412.664062 100.007812 413.257812 100.839844 C 413.847656 101.671875 414.144531 102.601562 414.144531 103.625 L 414.144531 108.710938 L 410.207031 108.710938 L 410.207031 103.625 C 410.207031 102.921875 410.039062 102.34375 409.703125 101.894531 C 409.367188 101.449219 408.800781 101.105469 408 100.863281 C 407.199219 100.625 406.128906 100.503906 404.785156 100.503906 C 402.769531 100.503906 401.351562 100.792969 400.535156 101.367188 C 399.71875 101.945312 399.3125 102.921875 399.3125 104.296875 C 399.3125 104.871094 399.359375 105.304688 399.457031 105.59375 C 399.550781 105.878906 399.703125 106.078125 399.910156 106.191406 C 400.121094 106.304688 400.398438 106.359375 400.753906 106.359375 L 403.679688 106.359375 L 403.679688 108.710938 Z M 412.921875 64.167969 L 409.703125 64.167969 L 409.703125 53.65625 L 412.921875 53.65625 Z M 395.351562 64.167969 C 394.550781 64.167969 393.960938 63.878906 393.574219 63.304688 C 393.191406 62.726562 393 61.847656 393 60.664062 C 393 59.609375 393.28125 58.640625 393.839844 57.761719 C 394.398438 56.878906 395.222656 56.167969 396.3125 55.625 C 397.398438 55.082031 398.726562 54.808594 400.296875 54.808594 C 401.449219 54.808594 402.601562 54.96875 403.753906 55.289062 C 404.90625 55.609375 406.015625 56.039062 407.089844 56.585938 C 408.160156 57.128906 409.183594 57.753906 410.160156 58.457031 C 411.136719 59.160156 412.054688 59.894531 412.921875 60.664062 L 412.921875 64.167969 Z M 396.550781 61.144531 L 408.457031 61.144531 C 407.59375 60.503906 406.769531 59.976562 405.984375 59.558594 C 405.199219 59.144531 404.464844 58.808594 403.777344 58.550781 C 403.089844 58.296875 402.457031 58.113281 401.878906 58 C 401.304688 57.886719 400.777344 57.832031 400.296875 57.832031 C 399.113281 57.832031 398.191406 58.070312 397.535156 58.550781 C 396.878906 59.03125 396.550781 59.894531 396.550781 61.144531 Z M 426.824219 86.351562 L 424.089844 86.351562 L 422.886719 61.726562 L 428.023438 61.726562 Z M 422.457031 93.40625 C 422.457031 92.222656 422.742188 91.390625 423.320312 90.910156 C 423.894531 90.429688 424.601562 90.191406 425.433594 90.191406 C 426.234375 90.191406 426.929688 90.433594 427.519531 90.910156 C 428.113281 91.390625 428.40625 92.222656 428.40625 93.40625 C 428.40625 94.558594 428.113281 95.390625 427.519531 95.902344 C 426.929688 96.414062 426.230469 96.671875 425.433594 96.671875 C 424.601562 96.671875 423.894531 96.414062 423.320312 95.902344 C 422.742188 95.390625 422.457031 94.558594 422.457031 93.40625 Z M 48 44.6875 "/>
<path style=" stroke:none;fill-rule:nonzero;fill:rgb(0%,0%,0%);fill-opacity:1;" d="M 63.9375 169.535156 L 57.457031 169.535156 L 57.457031 192 L 53.230469 192 L 53.230469 169.535156 L 48.71875 169.535156 L 48.71875 167.566406 L 53.230469 166.128906 L 53.230469 164.640625 C 53.230469 161.3125 53.96875 158.921875 55.441406 157.464844 C 56.914062 156.007812 58.960938 155.28125 61.585938 155.28125 C 62.609375 155.28125 63.542969 155.367188 64.390625 155.542969 C 65.238281 155.71875 65.96875 155.921875 66.574219 156.144531 L 65.472656 159.457031 C 64.960938 159.296875 64.367188 159.136719 63.695312 158.976562 C 63.023438 158.816406 62.335938 158.734375 61.632812 158.734375 C 60.222656 158.734375 59.175781 159.207031 58.488281 160.152344 C 57.800781 161.097656 57.457031 162.574219 57.457031 164.59375 L 57.457031 166.273438 L 63.9375 166.273438 Z M 91.449219 179.089844 C 91.449219 181.234375 91.167969 183.128906 90.609375 184.777344 C 90.046875 186.425781 89.246094 187.824219 88.207031 188.976562 C 87.167969 190.128906 85.902344 191 84.414062 191.59375 C 82.925781 192.183594 81.273438 192.480469 79.449219 192.480469 C 77.753906 192.480469 76.183594 192.183594 74.742188 191.59375 C 73.304688 191 72.054688 190.128906 71 188.976562 C 69.945312 187.824219 69.121094 186.425781 68.527344 184.777344 C 67.9375 183.128906 67.640625 181.230469 67.640625 179.089844 C 67.640625 176.242188 68.121094 173.832031 69.078125 171.863281 C 70.039062 169.894531 71.414062 168.390625 73.207031 167.351562 C 75 166.3125 77.128906 165.792969 79.59375 165.792969 C 81.929688 165.792969 83.984375 166.3125 85.761719 167.351562 C 87.535156 168.390625 88.929688 169.894531 89.9375 171.863281 C 90.945312 173.832031 91.449219 176.238281 91.449219 179.089844 Z M 72.007812 179.089844 C 72.007812 181.105469 72.273438 182.855469 72.800781 184.34375 C 73.328125 185.832031 74.152344 186.976562 75.273438 187.777344 C 76.390625 188.578125 77.816406 188.976562 79.542969 188.976562 C 81.273438 188.976562 82.695312 188.574219 83.816406 187.777344 C 84.9375 186.976562 85.761719 185.832031 86.289062 184.34375 C 86.816406 182.855469 87.078125 181.105469 87.078125 179.089844 C 87.078125 177.039062 86.808594 175.296875 86.265625 173.855469 C 85.71875 172.414062 84.894531 171.304688 83.792969 170.519531 C 82.6875 169.734375 81.257812 169.34375 79.496094 169.34375 C 76.871094 169.34375 74.96875 170.207031 73.785156 171.9375 C 72.601562 173.664062 72.007812 176.046875 72.007812 179.089844 Z M 110.078125 165.792969 C 110.558594 165.792969 111.078125 165.816406 111.640625 165.863281 C 112.199219 165.910156 112.6875 165.984375 113.105469 166.078125 L 112.574219 169.96875 C 112.160156 169.871094 111.703125 169.792969 111.207031 169.726562 C 110.710938 169.664062 110.238281 169.632812 109.792969 169.632812 C 108.800781 169.632812 107.855469 169.839844 106.960938 170.257812 C 106.0625 170.671875 105.265625 171.257812 104.558594 172.007812 C 103.855469 172.761719 103.304688 173.664062 102.902344 174.71875 C 102.503906 175.777344 102.304688 176.960938 102.304688 178.273438 L 102.304688 192 L 98.078125 192 L 98.078125 166.273438 L 101.535156 166.273438 L 102.015625 170.976562 L 102.207031 170.976562 C 102.75 170.015625 103.40625 169.144531 104.175781 168.359375 C 104.945312 167.574219 105.824219 166.953125 106.816406 166.488281 C 107.808594 166.023438 108.894531 165.792969 110.078125 165.792969 Z M 146.304688 165.792969 C 149.214844 165.792969 151.390625 166.535156 152.832031 168.023438 C 154.273438 169.511719 154.992188 171.921875 154.992188 175.246094 L 154.992188 192 L 150.816406 192 L 150.816406 175.441406 C 150.816406 173.425781 150.390625 171.902344 149.542969 170.878906 C 148.695312 169.855469 147.375 169.34375 145.585938 169.34375 C 143.089844 169.34375 141.304688 170.0625 140.230469 171.503906 C 139.160156 172.945312 138.625 175.039062 138.625 177.792969 L 138.625 192 L 134.449219 192 L 134.449219 175.441406 C 134.449219 174.097656 134.257812 172.96875 133.871094 172.054688 C 133.488281 171.144531 132.910156 170.464844 132.144531 170.015625 C 131.375 169.566406 130.382812 169.34375 129.167969 169.34375 C 127.441406 169.34375 126.078125 169.703125 125.089844 170.425781 C 124.097656 171.144531 123.382812 172.191406 122.953125 173.566406 C 122.519531 174.945312 122.304688 176.640625 122.304688 178.65625 L 122.304688 192 L 118.078125 192 L 118.078125 166.273438 L 121.488281 166.273438 L 122.113281 169.777344 L 122.351562 169.777344 C 122.894531 168.878906 123.558594 168.136719 124.34375 167.542969 C 125.128906 166.953125 126 166.511719 126.960938 166.222656 C 127.921875 165.9375 128.910156 165.792969 129.9375 165.792969 C 131.921875 165.792969 133.574219 166.144531 134.902344 166.847656 C 136.230469 167.550781 137.199219 168.640625 137.808594 170.113281 L 138.046875 170.113281 C 138.910156 168.640625 140.089844 167.550781 141.574219 166.847656 C 143.0625 166.144531 144.640625 165.792969 146.304688 165.792969 Z M 172.824219 165.839844 C 175.960938 165.839844 178.28125 166.527344 179.785156 167.902344 C 181.289062 169.28125 182.039062 171.472656 182.039062 174.480469 L 182.039062 192 L 178.96875 192 L 178.152344 188.351562 L 177.960938 188.351562 C 177.222656 189.28125 176.464844 190.054688 175.679688 190.679688 C 174.894531 191.304688 174 191.761719 172.992188 192.046875 C 171.984375 192.335938 170.761719 192.480469 169.320312 192.480469 C 167.785156 192.480469 166.398438 192.207031 165.167969 191.664062 C 163.9375 191.121094 162.96875 190.28125 162.265625 189.144531 C 161.558594 188.007812 161.207031 186.574219 161.207031 184.847656 C 161.207031 182.289062 162.214844 180.3125 164.230469 178.921875 C 166.246094 177.527344 169.351562 176.769531 173.542969 176.640625 L 177.910156 176.496094 L 177.910156 174.960938 C 177.910156 172.816406 177.449219 171.328125 176.519531 170.496094 C 175.59375 169.664062 174.28125 169.246094 172.585938 169.246094 C 171.242188 169.246094 169.960938 169.449219 168.742188 169.847656 C 167.527344 170.246094 166.390625 170.703125 165.335938 171.214844 L 164.039062 168.046875 C 165.160156 167.441406 166.488281 166.921875 168.023438 166.488281 C 169.558594 166.054688 171.160156 165.839844 172.824219 165.839844 Z M 174.070312 179.566406 C 170.871094 179.695312 168.65625 180.207031 167.425781 181.105469 C 166.191406 182 165.574219 183.265625 165.574219 184.894531 C 165.574219 186.335938 166.015625 187.390625 166.894531 188.0625 C 167.777344 188.734375 168.902344 189.070312 170.28125 189.070312 C 172.457031 189.070312 174.265625 188.472656 175.703125 187.273438 C 177.144531 186.074219 177.863281 184.222656 177.863281 181.726562 L 177.863281 179.425781 Z M 198.671875 189.023438 C 199.3125 189.023438 199.96875 188.96875 200.640625 188.855469 C 201.3125 188.742188 201.855469 188.625 202.273438 188.496094 L 202.273438 191.710938 C 201.824219 191.9375 201.183594 192.121094 200.351562 192.265625 C 199.519531 192.410156 198.71875 192.480469 197.953125 192.480469 C 196.609375 192.480469 195.367188 192.246094 194.230469 191.785156 C 193.09375 191.320312 192.175781 190.511719 191.472656 189.359375 C 190.769531 188.207031 190.414062 186.59375 190.414062 184.511719 L 190.414062 169.535156 L 186.769531 169.535156 L 186.769531 167.519531 L 190.464844 165.839844 L 192.144531 160.367188 L 194.640625 160.367188 L 194.640625 166.273438 L 202.078125 166.273438 L 202.078125 169.535156 L 194.640625 169.535156 L 194.640625 184.414062 C 194.640625 185.984375 195.015625 187.144531 195.769531 187.894531 C 196.519531 188.648438 197.488281 189.023438 198.671875 189.023438 Z M 206.457031 189.40625 C 206.457031 188.222656 206.742188 187.390625 207.320312 186.910156 C 207.894531 186.429688 208.585938 186.191406 209.382812 186.191406 C 210.214844 186.191406 210.929688 186.433594 211.519531 186.910156 C 212.113281 187.390625 212.40625 188.222656 212.40625 189.40625 C 212.40625 190.558594 212.113281 191.390625 211.519531 191.902344 C 210.929688 192.414062 210.214844 192.671875 209.382812 192.671875 C 208.582031 192.671875 207.894531 192.414062 207.320312 191.902344 C 206.742188 191.390625 206.457031 190.558594 206.457031 189.40625 Z M 206.457031 168.863281 C 206.457031 167.648438 206.742188 166.800781 207.320312 166.320312 C 207.894531 165.839844 208.585938 165.601562 209.382812 165.601562 C 210.214844 165.601562 210.929688 165.839844 211.519531 166.320312 C 212.113281 166.800781 212.40625 167.648438 212.40625 168.863281 C 212.40625 170.015625 212.113281 170.847656 211.519531 171.359375 C 210.929688 171.871094 210.214844 172.128906 209.382812 172.128906 C 208.582031 172.128906 207.894531 171.871094 207.320312 171.359375 C 206.742188 170.847656 206.457031 170.015625 206.457031 168.863281 Z M 248.832031 184.894531 C 248.832031 186.558594 248.414062 187.953125 247.585938 189.070312 C 246.753906 190.191406 245.566406 191.039062 244.03125 191.617188 C 242.496094 192.191406 240.671875 192.480469 238.558594 192.480469 C 236.765625 192.480469 235.222656 192.335938 233.929688 192.046875 C 232.632812 191.757812 231.488281 191.359375 230.496094 190.847656 L 230.496094 187.007812 C 231.519531 187.519531 232.761719 187.992188 234.214844 188.425781 C 235.671875 188.855469 237.152344 189.070312 238.65625 189.070312 C 240.800781 189.070312 242.351562 188.726562 243.3125 188.039062 C 244.273438 187.351562 244.753906 186.433594 244.753906 185.28125 C 244.753906 184.640625 244.574219 184.0625 244.222656 183.550781 C 243.871094 183.039062 243.238281 182.527344 242.328125 182.015625 C 241.417969 181.503906 240.113281 180.929688 238.414062 180.289062 C 236.75 179.648438 235.328125 179.007812 234.144531 178.367188 C 232.960938 177.726562 232.046875 176.960938 231.40625 176.0625 C 230.765625 175.167969 230.449219 174.015625 230.449219 172.609375 C 230.449219 170.433594 231.335938 168.753906 233.113281 167.566406 C 234.886719 166.382812 237.214844 165.792969 240.097656 165.792969 C 241.664062 165.792969 243.128906 165.945312 244.488281 166.246094 C 245.847656 166.550781 247.121094 166.976562 248.304688 167.519531 L 246.863281 170.878906 C 245.777344 170.429688 244.640625 170.046875 243.457031 169.726562 C 242.273438 169.40625 241.054688 169.246094 239.808594 169.246094 C 238.082031 169.246094 236.761719 169.527344 235.847656 170.089844 C 234.9375 170.648438 234.480469 171.40625 234.480469 172.367188 C 234.480469 173.070312 234.6875 173.671875 235.105469 174.167969 C 235.519531 174.664062 236.214844 175.144531 237.191406 175.609375 C 238.167969 176.074219 239.472656 176.625 241.105469 177.265625 C 242.738281 177.871094 244.128906 178.496094 245.28125 179.136719 C 246.433594 179.777344 247.3125 180.550781 247.921875 181.464844 C 248.527344 182.375 248.832031 183.519531 248.832031 184.894531 Z M 260.742188 192 L 251 166.273438 L 255.511719 166.273438 L 260.984375 181.441406 C 261.238281 182.144531 261.511719 182.929688 261.800781 183.792969 C 262.089844 184.65625 262.34375 185.480469 262.566406 186.265625 C 262.792969 187.046875 262.953125 187.710938 263.046875 188.257812 L 263.238281 188.257812 C 263.367188 187.710938 263.550781 187.039062 263.792969 186.238281 C 264.03125 185.4375 264.304688 184.609375 264.609375 183.742188 C 264.914062 182.878906 265.175781 182.113281 265.398438 181.441406 L 270.871094 166.273438 L 275.382812 166.273438 L 265.59375 192 Z M 288.199219 165.792969 C 289.894531 165.792969 291.425781 166.113281 292.785156 166.753906 C 294.144531 167.394531 295.304688 168.367188 296.265625 169.679688 L 296.503906 169.679688 L 297.078125 166.273438 L 300.441406 166.273438 L 300.441406 192.433594 C 300.441406 194.863281 300.023438 196.902344 299.191406 198.550781 C 298.359375 200.199219 297.097656 201.441406 295.398438 202.273438 C 293.703125 203.105469 291.542969 203.519531 288.921875 203.519531 C 287.066406 203.519531 285.359375 203.382812 283.808594 203.113281 C 282.257812 202.839844 280.871094 202.433594 279.65625 201.886719 L 279.65625 198 C 280.871094 198.640625 282.296875 199.136719 283.929688 199.488281 C 285.5625 199.839844 287.304688 200.015625 289.160156 200.015625 C 291.367188 200.015625 293.105469 199.367188 294.367188 198.070312 C 295.632812 196.777344 296.265625 195.007812 296.265625 192.769531 L 296.265625 191.761719 C 296.265625 191.375 296.28125 190.824219 296.3125 190.105469 C 296.34375 189.382812 296.375 188.878906 296.40625 188.59375 L 296.214844 188.59375 C 295.320312 189.90625 294.207031 190.878906 292.878906 191.519531 C 291.550781 192.160156 290.007812 192.480469 288.246094 192.480469 C 284.917969 192.480469 282.320312 191.3125 280.449219 188.976562 C 278.578125 186.640625 277.640625 183.375 277.640625 179.183594 C 277.640625 175.085938 278.574219 171.832031 280.449219 169.414062 C 282.320312 167 284.902344 165.792969 288.199219 165.792969 Z M 288.777344 169.34375 C 287.335938 169.34375 286.113281 169.726562 285.105469 170.496094 C 284.097656 171.265625 283.328125 172.382812 282.800781 173.855469 C 282.273438 175.328125 282.007812 177.121094 282.007812 179.230469 C 282.007812 182.398438 282.59375 184.824219 283.761719 186.503906 C 284.929688 188.183594 286.632812 189.023438 288.871094 189.023438 C 290.183594 189.023438 291.304688 188.855469 292.230469 188.519531 C 293.160156 188.183594 293.929688 187.65625 294.535156 186.9375 C 295.144531 186.214844 295.59375 185.296875 295.878906 184.175781 C 296.167969 183.054688 296.3125 181.726562 296.3125 180.191406 L 296.3125 179.183594 C 296.3125 176.847656 296.046875 174.960938 295.519531 173.519531 C 294.992188 172.078125 294.167969 171.023438 293.046875 170.351562 C 291.925781 169.679688 290.503906 169.34375 288.777344 169.34375 Z M 48 140.6875 "/>
</g>
</svg>
